<svg id="visual" viewBox="0 0 1920 1080" width="1920" height="1080" xmlns="http://www.w3.org/2000/svg" xmlns:xlink="http://www.w3.org/1999/xlink" version="1.1"><path d="M0 314L274 185L549 271L823 303L1097 325L1371 228L1646 228L1920 271L1920 0L1646 0L1371 0L1097 0L823 0L549 0L274 0L0 0Z" fill="#0091ff"></path><path d="M0 455L274 249L549 336L823 422L1097 465L1371 368L1646 379L1920 357L1920 269L1646 226L1371 226L1097 323L823 301L549 269L274 183L0 312Z" fill="#68a6ff"></path><path d="M0 681L274 606L549 692L823 703L1097 703L1371 692L1646 714L1920 714L1920 355L1646 377L1371 366L1097 463L823 420L549 334L274 247L0 453Z" fill="#96bbff"></path><path d="M0 822L274 681L549 779L823 833L1097 789L1371 822L1646 768L1920 854L1920 712L1646 712L1371 690L1097 701L823 701L549 690L274 604L0 679Z" fill="#bcd1ff"></path><path d="M0 897L274 822L549 897L823 995L1097 897L1371 984L1646 962L1920 951L1920 852L1646 766L1371 820L1097 787L823 831L549 777L274 679L0 820Z" fill="#dfe8ff"></path><path d="M0 1081L274 1081L549 1081L823 1081L1097 1081L1371 1081L1646 1081L1920 1081L1920 949L1646 960L1371 982L1097 895L823 993L549 895L274 820L0 895Z" fill="#ffffff"></path></svg>