<svg id="visual" viewBox="0 0 900 600" width="900" height="600" xmlns="http://www.w3.org/2000/svg" xmlns:xlink="http://www.w3.org/1999/xlink" version="1.1"><path d="M0 61L18.8 66C37.7 71 75.3 81 112.8 78C150.3 75 187.7 59 225.2 51C262.7 43 300.3 43 337.8 50C375.3 57 412.7 71 450.2 78C487.7 85 525.3 85 562.8 80C600.3 75 637.7 65 675.2 66C712.7 67 750.3 79 787.8 80C825.3 81 862.7 71 881.3 66L900 61L900 0L881.3 0C862.7 0 825.3 0 787.8 0C750.3 0 712.7 0 675.2 0C637.7 0 600.3 0 562.8 0C525.3 0 487.7 0 450.2 0C412.7 0 375.3 0 337.8 0C300.3 0 262.7 0 225.2 0C187.7 0 150.3 0 112.8 0C75.3 0 37.7 0 18.8 0L0 0Z" fill="#0091ff"></path><path d="M0 157L18.8 163C37.7 169 75.3 181 112.8 177C150.3 173 187.7 153 225.2 150C262.7 147 300.3 161 337.8 163C375.3 165 412.7 155 450.2 155C487.7 155 525.3 165 562.8 176C600.3 187 637.7 199 675.2 199C712.7 199 750.3 187 787.8 176C825.3 165 862.7 155 881.3 150L900 145L900 59L881.3 64C862.7 69 825.3 79 787.8 78C750.3 77 712.7 65 675.2 64C637.7 63 600.3 73 562.8 78C525.3 83 487.7 83 450.2 76C412.7 69 375.3 55 337.8 48C300.3 41 262.7 41 225.2 49C187.7 57 150.3 73 112.8 76C75.3 79 37.7 69 18.8 64L0 59Z" fill="#00518b"></path><path d="M0 241L18.8 260C37.7 279 75.3 317 112.8 318C150.3 319 187.7 283 225.2 272C262.7 261 300.3 275 337.8 282C375.3 289 412.7 289 450.2 286C487.7 283 525.3 277 562.8 298C600.3 319 637.7 367 675.2 382C712.7 397 750.3 379 787.8 361C825.3 343 862.7 325 881.3 316L900 307L900 143L881.3 148C862.7 153 825.3 163 787.8 174C750.3 185 712.7 197 675.2 197C637.7 197 600.3 185 562.8 174C525.3 163 487.7 153 450.2 153C412.7 153 375.3 163 337.8 161C300.3 159 262.7 145 225.2 148C187.7 151 150.3 171 112.8 175C75.3 179 37.7 167 18.8 161L0 155Z" fill="#001627"></path><path d="M0 451L18.8 461C37.7 471 75.3 491 112.8 492C150.3 493 187.7 475 225.2 464C262.7 453 300.3 449 337.8 456C375.3 463 412.7 481 450.2 486C487.7 491 525.3 483 562.8 487C600.3 491 637.7 507 675.2 505C712.7 503 750.3 483 787.8 473C825.3 463 862.7 463 881.3 463L900 463L900 305L881.3 314C862.7 323 825.3 341 787.8 359C750.3 377 712.7 395 675.2 380C637.7 365 600.3 317 562.8 296C525.3 275 487.7 281 450.2 284C412.7 287 375.3 287 337.8 280C300.3 273 262.7 259 225.2 270C187.7 281 150.3 317 112.8 316C75.3 315 37.7 277 18.8 258L0 239Z" fill="#001627"></path><path d="M0 529L18.8 532C37.7 535 75.3 541 112.8 542C150.3 543 187.7 539 225.2 535C262.7 531 300.3 527 337.8 530C375.3 533 412.7 543 450.2 542C487.7 541 525.3 529 562.8 531C600.3 533 637.7 549 675.2 548C712.7 547 750.3 529 787.8 525C825.3 521 862.7 531 881.3 536L900 541L900 461L881.3 461C862.7 461 825.3 461 787.8 471C750.3 481 712.7 501 675.2 503C637.7 505 600.3 489 562.8 485C525.3 481 487.7 489 450.2 484C412.7 479 375.3 461 337.8 454C300.3 447 262.7 451 225.2 462C187.7 473 150.3 491 112.8 490C75.3 489 37.7 469 18.8 459L0 449Z" fill="#00518b"></path><path d="M0 601L18.8 601C37.7 601 75.3 601 112.8 601C150.3 601 187.7 601 225.2 601C262.7 601 300.3 601 337.8 601C375.3 601 412.7 601 450.2 601C487.7 601 525.3 601 562.8 601C600.3 601 637.7 601 675.2 601C712.7 601 750.3 601 787.8 601C825.3 601 862.7 601 881.3 601L900 601L900 539L881.3 534C862.7 529 825.3 519 787.8 523C750.3 527 712.7 545 675.2 546C637.7 547 600.3 531 562.8 529C525.3 527 487.7 539 450.2 540C412.7 541 375.3 531 337.8 528C300.3 525 262.7 529 225.2 533C187.7 537 150.3 541 112.8 540C75.3 539 37.7 533 18.8 530L0 527Z" fill="#0091ff"></path></svg>