<svg id="visual" viewBox="0 0 1920 1080" width="1920" height="1080" xmlns="http://www.w3.org/2000/svg" xmlns:xlink="http://www.w3.org/1999/xlink" version="1.1"><path d="M0 109L40 118C80 127 160 145 240 139.7C320 134.3 400 105.7 480 91.3C560 77 640 77 720 89.5C800 102 880 127 960 139.5C1040 152 1120 152 1200 143C1280 134 1360 116 1440 117.8C1520 119.7 1600 141.3 1680 143.2C1760 145 1840 127 1880 118L1920 109L1920 0L1880 0C1840 0 1760 0 1680 0C1600 0 1520 0 1440 0C1360 0 1280 0 1200 0C1120 0 1040 0 960 0C880 0 800 0 720 0C640 0 560 0 480 0C400 0 320 0 240 0C160 0 80 0 40 0L0 0Z" fill="#0091ff"></path><path d="M0 282L40 292.8C80 303.7 160 325.3 240 318.2C320 311 400 275 480 269.5C560 264 640 289 720 292.5C800 296 880 278 960 278C1040 278 1120 296 1200 315.8C1280 335.7 1360 357.3 1440 357.3C1520 357.3 1600 335.7 1680 315.8C1760 296 1840 278 1880 269L1920 260L1920 107L1880 116C1840 125 1760 143 1680 141.2C1600 139.3 1520 117.7 1440 115.8C1360 114 1280 132 1200 141C1120 150 1040 150 960 137.5C880 125 800 100 720 87.5C640 75 560 75 480 89.3C400 103.7 320 132.3 240 137.7C160 143 80 125 40 116L0 107Z" fill="#00518b"></path><path d="M0 433L40 467.2C80 501.3 160 569.7 240 571.5C320 573.3 400 508.7 480 488.8C560 469 640 494 720 506.5C800 519 880 519 960 513.7C1040 508.3 1120 497.7 1200 535.5C1280 573.3 1360 659.7 1440 686.7C1520 713.7 1600 681.3 1680 649C1760 616.7 1840 584.3 1880 568.2L1920 552L1920 258L1880 267C1840 276 1760 294 1680 313.8C1600 333.7 1520 355.3 1440 355.3C1360 355.3 1280 333.7 1200 313.8C1120 294 1040 276 960 276C880 276 800 294 720 290.5C640 287 560 262 480 267.5C400 273 320 309 240 316.2C160 323.3 80 301.7 40 290.8L0 280Z" fill="#001627"></path><path d="M0 811L40 829C80 847 160 883 240 884.8C320 886.7 400 854.3 480 834.5C560 814.7 640 807.3 720 819.8C800 832.3 880 864.7 960 873.7C1040 882.7 1120 868.3 1200 875.7C1280 883 1360 912 1440 908.5C1520 905 1600 869 1680 851C1760 833 1840 833 1880 833L1920 833L1920 550L1880 566.2C1840 582.3 1760 614.7 1680 647C1600 679.3 1520 711.7 1440 684.7C1360 657.7 1280 571.3 1200 533.5C1120 495.7 1040 506.3 960 511.7C880 517 800 517 720 504.5C640 492 560 467 480 486.8C400 506.7 320 571.3 240 569.5C160 567.7 80 499.3 40 465.2L0 431Z" fill="#001627"></path><path d="M0 951L40 956.5C80 962 160 973 240 974.8C320 976.7 400 969.3 480 962.2C560 955 640 948 720 953.5C800 959 880 977 960 975.2C1040 973.3 1120 951.7 1200 955.2C1280 958.7 1360 987.3 1440 985.5C1520 983.7 1600 951.3 1680 944.2C1760 937 1840 955 1880 964L1920 973L1920 831L1880 831C1840 831 1760 831 1680 849C1600 867 1520 903 1440 906.5C1360 910 1280 881 1200 873.7C1120 866.3 1040 880.7 960 871.7C880 862.7 800 830.3 720 817.8C640 805.3 560 812.7 480 832.5C400 852.3 320 884.7 240 882.8C160 881 80 845 40 827L0 809Z" fill="#00518b"></path><path d="M0 1081L40 1081C80 1081 160 1081 240 1081C320 1081 400 1081 480 1081C560 1081 640 1081 720 1081C800 1081 880 1081 960 1081C1040 1081 1120 1081 1200 1081C1280 1081 1360 1081 1440 1081C1520 1081 1600 1081 1680 1081C1760 1081 1840 1081 1880 1081L1920 1081L1920 971L1880 962C1840 953 1760 935 1680 942.2C1600 949.3 1520 981.7 1440 983.5C1360 985.3 1280 956.7 1200 953.2C1120 949.7 1040 971.3 960 973.2C880 975 800 957 720 951.5C640 946 560 953 480 960.2C400 967.3 320 974.7 240 972.8C160 971 80 960 40 954.5L0 949Z" fill="#0091ff"></path></svg>